<svg width="95" height="129" viewBox="0 0 95 129" fill="none" xmlns="http://www.w3.org/2000/svg">
<path d="M47.5617 1.60546L52.5787 0C57.1275 0 59.4019 6.02047 59.4019 18.0614L65.6231 64.419L66.4258 65.2217L89.5042 56.7931C92.5814 56.7931 94.2537 59.1343 94.5213 63.8169C94.5213 67.2954 86.0257 71.5098 69.0347 76.4599L68.2319 76.8613V77.664C68.2319 80.4735 72.6469 95.1234 81.477 121.613V122.015C81.477 124.557 79.4032 126.697 75.2558 128.437C71.3759 128.437 68.834 123.821 67.6299 114.59C64.5528 107.9 60.8067 96.8626 56.3917 81.477H55.589C38.0627 85.0892 29.2996 88.1664 29.2996 90.7083C19.6669 111.579 12.3754 122.015 7.42524 122.015C4.61569 122.015 2.94334 120.209 2.40819 116.596C2.40819 113.385 5.95357 107.097 13.0443 97.7322L16.2553 90.7083H11.2382L7.42524 91.5111C2.47508 90.307 0 87.765 0 83.8851C2.00682 79.2026 4.95016 76.8613 8.83001 76.8613L13.8471 78.8681C21.3392 78.8681 25.0853 76.1254 25.0853 70.6401C31.9085 54.5856 39.4006 31.574 47.5617 1.60546ZM49.3678 38.1296L37.5276 73.851C48.4982 71.7104 53.9835 69.6367 53.9835 67.6299C51.9767 47.963 50.4381 38.1296 49.3678 38.1296Z" fill="#3f3f3f"/>
</svg>
