<?xml version="1.0" encoding="utf-8"?>
<!-- Generator: Adobe Illustrator 22.0.1, SVG Export Plug-In . SVG Version: 6.00 Build 0)  -->
<svg version="1.1" id="_x3C_Layer_x3E_" xmlns="http://www.w3.org/2000/svg" xmlns:xlink="http://www.w3.org/1999/xlink" x="0px"
	 y="0px" viewBox="0 0 4000 4000" style="enable-background:new 0 0 4000 4000;" xml:space="preserve">
<style type="text/css">
	.st0{fill:#FFFFFF;}
	.st1{fill:none;}
</style>
<path class="st0" d="M6404.8,1652.6h-28.6c-1.8,0-3.2,1.4-3.2,3.2v28.6c0,1.8,1.4,3.2,3.2,3.2h28.6c1.8,0,3.2-1.4,3.2-3.2v-28.6
	C6408,1654,6406.6,1652.6,6404.8,1652.6z M6380,1656.7c1.4,0,2.5,1.1,2.5,2.5c0,1.4-1.1,2.5-2.5,2.5c-1.4,0-2.5-1.1-2.5-2.5
	C6377.4,1657.9,6378.6,1656.7,6380,1656.7z M6382.8,1665.5v17.1c0,0.4-0.3,0.8-0.8,0.8c0,0,0,0,0,0h-4.2c-0.4,0-0.8-0.3-0.8-0.8
	c0,0,0,0,0,0v-17.1c0-0.4,0.3-0.8,0.8-0.8c0,0,0,0,0,0h4.2C6382.5,1664.7,6382.8,1665.1,6382.8,1665.5
	C6382.8,1665.5,6382.8,1665.5,6382.8,1665.5z M6403.9,1670.8v12.6h-5.9v-10.7c0-1.8-1.4-3.3-3.2-3.3c-1.8,0-3.3,1.4-3.3,3.2
	c0,0,0,0.1,0,0.1v9.9c0,0.4-0.3,0.8-0.8,0.8h-4.2c-0.4,0-0.8-0.3-0.8-0.8v-17.5c0-0.4,0.3-0.7,0.8-0.7h4.2c0.4,0,0.8,0.3,0.8,0.7
	v1.7c0.5-0.7,1.2-1.3,1.9-1.7c0.4-0.3,0.9-0.5,1.4-0.6h0c0.3-0.1,0.6-0.1,0.9-0.1h1.8C6401,1664.4,6403.9,1667.3,6403.9,1670.8
	C6403.9,1670.8,6403.9,1670.8,6403.9,1670.8z"/>
<g>
	<g>
		<g>
			<rect class="st1" width="4000" height="4000"/>
		</g>
	</g>
	<g>
		<g>
			<rect class="st1" width="4000" height="4000"/>
		</g>
	</g>
	<g>
		<g>
			<rect class="st1" width="4000" height="4000"/>
		</g>
	</g>
	<g>
		<g>
			<rect class="st1" width="4000" height="4000"/>
		</g>
	</g>
</g>
</svg>
